<svg xmlns="http://www.w3.org/2000/svg" viewBox="0 0 512 512" width="512" height="512">
  <defs>
    <radialGradient id="bg512" cx="50%" cy="38%" r="65%">
      <stop offset="0%" stop-color="#1e3a5f"/>
      <stop offset="100%" stop-color="#0f172a"/>
    </radialGradient>
    <filter id="glow512" x="-30%" y="-30%" width="160%" height="160%">
      <feGaussianBlur stdDeviation="12" result="blur"/>
      <feMerge><feMergeNode in="blur"/><feMergeNode in="SourceGraphic"/></feMerge>
    </filter>
  </defs>
  <rect width="512" height="512" rx="96" fill="#0f172a"/>
  <rect width="512" height="512" rx="96" fill="url(#bg512)"/>
  <!-- Trident centered at (256, 240), scaled up -->
  <g transform="translate(256,236)" fill="#60a5fa" filter="url(#glow512)">
    <!-- Left prong -->
    <path d="M-102 38 L-102 -48 L-86 -92 L-70 -48 L-70 38 Z"/>
    <!-- Center prong — tallest -->
    <path d="M-24 54 L-24 -80 L0 -124 L24 -80 L24 54 Z"/>
    <!-- Right prong -->
    <path d="M70 38 L70 -48 L86 -92 L102 -48 L102 38 Z"/>
    <!-- Crossbar -->
    <rect x="-102" y="38" width="204" height="22" rx="8"/>
    <!-- Handle shaft -->
    <rect x="-11" y="54" width="22" height="144" rx="11"/>
    <!-- Crossguard -->
    <rect x="-60" y="140" width="120" height="18" rx="9"/>
    <circle cx="-60" cy="149" r="22"/>
    <circle cx="60"  cy="149" r="22"/>
    <!-- Base foot -->
    <rect x="-32" y="198" width="64" height="18" rx="9"/>
  </g>
</svg>
